<?xml version="1.0" encoding="UTF-8" standalone="no"?>
<svg width="28px" height="28px" viewBox="0 0 256 194" version="1.1" xmlns="http://www.w3.org/2000/svg" xmlns:xlink="http://www.w3.org/1999/xlink" preserveAspectRatio="xMidYMid">
    <defs>
        <linearGradient x1="0.00388991071%" y1="49.997619%" x2="100.032232%" y2="49.997619%" id="linearGradient-1">
            <stop stop-color="#000000" stop-opacity="0.1" offset="0%"></stop>
            <stop stop-color="#000000" stop-opacity="0.2" offset="100%"></stop>
        </linearGradient>
</defs>
    <g>
        <path d="M16.1542195,193.595007 C7.29247625,193.595007 0.248526454,186.551057 0.248526454,177.689314 L0.248526454,16.5873656 C0.248526454,7.72562236 7.29247625,6.13505305 16.1542195,6.13505305 C25.0159628,6.13505305 32.0599126,7.95284654 32.0599126,16.5873656 L32.0599126,193.595007 L16.1542195,193.595007 L16.1542195,193.595007 Z" fill="#4E4E4E"></path>
        <path d="M238.833923,193.595007 L222.92823,193.595007 L222.92823,16.1329173 C222.92823,7.27117398 229.972179,6.13505305 238.833923,6.13505305 C247.695666,6.13505305 254.739616,7.27117398 254.739616,16.1329173 L254.739616,177.916538 C254.739616,186.551057 247.695666,193.595007 238.833923,193.595007 L238.833923,193.595007 Z" fill="#4E4E4E"></path>
        <path d="M127.266847,117.020456 L7.06525206,29.7663685 C0.0213022675,24.5402122 -2.02371542,14.542348 3.20244088,7.49839817 C8.42859718,0.454448374 18.6536856,-1.13612093 25.9248596,4.09003537 L127.494071,77.9378961 L229.744955,3.18113862 C236.788905,-2.04501768 246.786769,-0.454448374 252.012926,6.81672561 C257.239082,13.8606754 255.648513,23.8585396 248.377339,29.0846959 L127.266847,117.020456 L127.266847,117.020456 Z" fill="#4E4E4E"></path>
    </g>
</svg>